<mxfile host="app.diagrams.net" agent="Mozilla/5.0 (Macintosh; Intel Mac OS X 10_15_7) AppleWebKit/537.36 (KHTML, like Gecko) Chrome/141.0.0.0 Safari/537.36" version="28.2.5">
  <diagram name="Page-1" id="3nmtfnXhX2QYZ73jvLKg">
    <mxGraphModel dx="2909" dy="1980" grid="1" gridSize="10" guides="1" tooltips="1" connect="1" arrows="1" fold="1" page="1" pageScale="1" pageWidth="850" pageHeight="1100" math="0" shadow="0">
      <root>
        <mxCell id="0" />
        <mxCell id="1" parent="0" />
        <mxCell id="EdBRat70Bg2DFsznW1Ne-192" value="" style="rounded=0;whiteSpace=wrap;html=1;fillColor=none;dashed=1;dashPattern=8 8;strokeColor=#3399FF;" vertex="1" parent="1">
          <mxGeometry x="200" y="400" width="130" height="40" as="geometry" />
        </mxCell>
        <mxCell id="EdBRat70Bg2DFsznW1Ne-193" value="" style="rounded=0;whiteSpace=wrap;html=1;fillColor=none;dashed=1;dashPattern=8 8;strokeColor=#3399FF;" vertex="1" parent="1">
          <mxGeometry x="330" y="400" width="130" height="40" as="geometry" />
        </mxCell>
        <mxCell id="EdBRat70Bg2DFsznW1Ne-194" value="" style="rounded=0;whiteSpace=wrap;html=1;fillColor=none;dashed=1;dashPattern=8 8;strokeColor=#3399FF;" vertex="1" parent="1">
          <mxGeometry x="200" y="440" width="130" height="40" as="geometry" />
        </mxCell>
        <mxCell id="EdBRat70Bg2DFsznW1Ne-195" value="" style="rounded=0;whiteSpace=wrap;html=1;fillColor=none;dashed=1;dashPattern=8 8;strokeColor=#3399FF;" vertex="1" parent="1">
          <mxGeometry x="330" y="440" width="130" height="40" as="geometry" />
        </mxCell>
        <mxCell id="EdBRat70Bg2DFsznW1Ne-196" value="" style="rounded=0;whiteSpace=wrap;html=1;fillColor=none;dashed=1;dashPattern=8 8;strokeColor=#3399FF;" vertex="1" parent="1">
          <mxGeometry x="200" y="480" width="130" height="40" as="geometry" />
        </mxCell>
        <mxCell id="EdBRat70Bg2DFsznW1Ne-197" value="" style="rounded=0;whiteSpace=wrap;html=1;fillColor=none;dashed=1;dashPattern=8 8;strokeColor=#3399FF;" vertex="1" parent="1">
          <mxGeometry x="330" y="480" width="130" height="40" as="geometry" />
        </mxCell>
        <mxCell id="EdBRat70Bg2DFsznW1Ne-198" value="" style="rounded=0;whiteSpace=wrap;html=1;fillColor=none;dashed=1;dashPattern=8 8;strokeColor=#3399FF;" vertex="1" parent="1">
          <mxGeometry x="460" y="400" width="130" height="40" as="geometry" />
        </mxCell>
        <mxCell id="EdBRat70Bg2DFsznW1Ne-199" value="" style="rounded=0;whiteSpace=wrap;html=1;fillColor=none;dashed=1;dashPattern=8 8;strokeColor=#3399FF;" vertex="1" parent="1">
          <mxGeometry x="590" y="400" width="130" height="40" as="geometry" />
        </mxCell>
        <mxCell id="EdBRat70Bg2DFsznW1Ne-200" value="" style="rounded=0;whiteSpace=wrap;html=1;fillColor=none;dashed=1;dashPattern=8 8;strokeColor=#3399FF;" vertex="1" parent="1">
          <mxGeometry x="460" y="440" width="130" height="40" as="geometry" />
        </mxCell>
        <mxCell id="EdBRat70Bg2DFsznW1Ne-201" value="" style="rounded=0;whiteSpace=wrap;html=1;fillColor=none;dashed=1;dashPattern=8 8;strokeColor=#3399FF;" vertex="1" parent="1">
          <mxGeometry x="590" y="440" width="130" height="40" as="geometry" />
        </mxCell>
        <mxCell id="EdBRat70Bg2DFsznW1Ne-202" value="" style="rounded=0;whiteSpace=wrap;html=1;fillColor=none;dashed=1;dashPattern=8 8;strokeColor=#3399FF;" vertex="1" parent="1">
          <mxGeometry x="460" y="480" width="130" height="40" as="geometry" />
        </mxCell>
        <mxCell id="EdBRat70Bg2DFsznW1Ne-203" value="" style="rounded=0;whiteSpace=wrap;html=1;fillColor=none;dashed=1;dashPattern=8 8;strokeColor=#3399FF;" vertex="1" parent="1">
          <mxGeometry x="590" y="480" width="130" height="40" as="geometry" />
        </mxCell>
        <mxCell id="EdBRat70Bg2DFsznW1Ne-204" value="" style="rounded=0;whiteSpace=wrap;html=1;fillColor=none;dashed=1;dashPattern=8 8;strokeColor=#3399FF;" vertex="1" parent="1">
          <mxGeometry x="200" y="520" width="130" height="40" as="geometry" />
        </mxCell>
        <mxCell id="EdBRat70Bg2DFsznW1Ne-433" style="edgeStyle=orthogonalEdgeStyle;rounded=0;orthogonalLoop=1;jettySize=auto;html=1;exitX=0.5;exitY=1;exitDx=0;exitDy=0;entryX=0.5;entryY=0;entryDx=0;entryDy=0;" edge="1" parent="1" source="EdBRat70Bg2DFsznW1Ne-205" target="EdBRat70Bg2DFsznW1Ne-207">
          <mxGeometry relative="1" as="geometry" />
        </mxCell>
        <mxCell id="EdBRat70Bg2DFsznW1Ne-205" value="" style="rounded=0;whiteSpace=wrap;html=1;fillColor=none;dashed=1;dashPattern=8 8;strokeColor=#3399FF;" vertex="1" parent="1">
          <mxGeometry x="330" y="520" width="130" height="40" as="geometry" />
        </mxCell>
        <mxCell id="EdBRat70Bg2DFsznW1Ne-206" value="" style="rounded=0;whiteSpace=wrap;html=1;fillColor=none;dashed=1;dashPattern=8 8;strokeColor=#3399FF;" vertex="1" parent="1">
          <mxGeometry x="200" y="560" width="130" height="40" as="geometry" />
        </mxCell>
        <mxCell id="EdBRat70Bg2DFsznW1Ne-207" value="" style="rounded=0;whiteSpace=wrap;html=1;fillColor=none;dashed=1;dashPattern=8 8;strokeColor=#3399FF;" vertex="1" parent="1">
          <mxGeometry x="330" y="560" width="130" height="40" as="geometry" />
        </mxCell>
        <mxCell id="EdBRat70Bg2DFsznW1Ne-208" value="" style="rounded=0;whiteSpace=wrap;html=1;fillColor=none;dashed=1;dashPattern=8 8;strokeColor=#3399FF;" vertex="1" parent="1">
          <mxGeometry x="200" y="600" width="130" height="40" as="geometry" />
        </mxCell>
        <mxCell id="EdBRat70Bg2DFsznW1Ne-209" value="" style="rounded=0;whiteSpace=wrap;html=1;fillColor=none;dashed=1;dashPattern=8 8;strokeColor=#3399FF;" vertex="1" parent="1">
          <mxGeometry x="330" y="600" width="130" height="40" as="geometry" />
        </mxCell>
        <mxCell id="EdBRat70Bg2DFsznW1Ne-210" value="" style="rounded=0;whiteSpace=wrap;html=1;fillColor=none;dashed=1;dashPattern=8 8;strokeColor=#3399FF;" vertex="1" parent="1">
          <mxGeometry x="460" y="520" width="130" height="40" as="geometry" />
        </mxCell>
        <mxCell id="EdBRat70Bg2DFsznW1Ne-211" value="" style="rounded=0;whiteSpace=wrap;html=1;fillColor=none;dashed=1;dashPattern=8 8;strokeColor=#3399FF;" vertex="1" parent="1">
          <mxGeometry x="590" y="520" width="130" height="40" as="geometry" />
        </mxCell>
        <mxCell id="EdBRat70Bg2DFsznW1Ne-212" value="" style="rounded=0;whiteSpace=wrap;html=1;fillColor=none;dashed=1;dashPattern=8 8;strokeColor=#3399FF;" vertex="1" parent="1">
          <mxGeometry x="460" y="560" width="130" height="40" as="geometry" />
        </mxCell>
        <mxCell id="EdBRat70Bg2DFsznW1Ne-213" value="" style="rounded=0;whiteSpace=wrap;html=1;fillColor=none;dashed=1;dashPattern=8 8;strokeColor=#3399FF;" vertex="1" parent="1">
          <mxGeometry x="590" y="560" width="130" height="40" as="geometry" />
        </mxCell>
        <mxCell id="EdBRat70Bg2DFsznW1Ne-214" value="" style="rounded=0;whiteSpace=wrap;html=1;fillColor=none;dashed=1;dashPattern=8 8;strokeColor=#3399FF;" vertex="1" parent="1">
          <mxGeometry x="460" y="600" width="130" height="40" as="geometry" />
        </mxCell>
        <mxCell id="EdBRat70Bg2DFsznW1Ne-215" value="" style="rounded=0;whiteSpace=wrap;html=1;fillColor=none;dashed=1;dashPattern=8 8;strokeColor=#3399FF;" vertex="1" parent="1">
          <mxGeometry x="590" y="600" width="130" height="40" as="geometry" />
        </mxCell>
        <mxCell id="EdBRat70Bg2DFsznW1Ne-216" value="" style="rounded=0;whiteSpace=wrap;html=1;fillColor=none;dashed=1;dashPattern=8 8;strokeColor=#3399FF;" vertex="1" parent="1">
          <mxGeometry x="720" y="400" width="130" height="40" as="geometry" />
        </mxCell>
        <mxCell id="EdBRat70Bg2DFsznW1Ne-217" value="" style="rounded=0;whiteSpace=wrap;html=1;fillColor=none;dashed=1;dashPattern=8 8;strokeColor=#3399FF;" vertex="1" parent="1">
          <mxGeometry x="850" y="400" width="130" height="40" as="geometry" />
        </mxCell>
        <mxCell id="EdBRat70Bg2DFsznW1Ne-218" value="" style="rounded=0;whiteSpace=wrap;html=1;fillColor=none;dashed=1;dashPattern=8 8;strokeColor=#3399FF;" vertex="1" parent="1">
          <mxGeometry x="720" y="440" width="130" height="40" as="geometry" />
        </mxCell>
        <mxCell id="EdBRat70Bg2DFsznW1Ne-219" value="" style="rounded=0;whiteSpace=wrap;html=1;fillColor=none;dashed=1;dashPattern=8 8;strokeColor=#3399FF;" vertex="1" parent="1">
          <mxGeometry x="850" y="440" width="130" height="40" as="geometry" />
        </mxCell>
        <mxCell id="EdBRat70Bg2DFsznW1Ne-220" value="" style="rounded=0;whiteSpace=wrap;html=1;fillColor=none;dashed=1;dashPattern=8 8;strokeColor=#3399FF;" vertex="1" parent="1">
          <mxGeometry x="720" y="480" width="130" height="40" as="geometry" />
        </mxCell>
        <mxCell id="EdBRat70Bg2DFsznW1Ne-221" value="" style="rounded=0;whiteSpace=wrap;html=1;fillColor=none;dashed=1;dashPattern=8 8;strokeColor=#3399FF;" vertex="1" parent="1">
          <mxGeometry x="850" y="480" width="130" height="40" as="geometry" />
        </mxCell>
        <mxCell id="EdBRat70Bg2DFsznW1Ne-222" value="" style="rounded=0;whiteSpace=wrap;html=1;fillColor=none;dashed=1;dashPattern=8 8;strokeColor=#3399FF;" vertex="1" parent="1">
          <mxGeometry x="980" y="400" width="130" height="40" as="geometry" />
        </mxCell>
        <mxCell id="EdBRat70Bg2DFsznW1Ne-223" value="" style="rounded=0;whiteSpace=wrap;html=1;fillColor=none;dashed=1;dashPattern=8 8;strokeColor=#3399FF;" vertex="1" parent="1">
          <mxGeometry x="1110" y="400" width="130" height="40" as="geometry" />
        </mxCell>
        <mxCell id="EdBRat70Bg2DFsznW1Ne-224" value="" style="rounded=0;whiteSpace=wrap;html=1;fillColor=none;dashed=1;dashPattern=8 8;strokeColor=#3399FF;" vertex="1" parent="1">
          <mxGeometry x="980" y="440" width="130" height="40" as="geometry" />
        </mxCell>
        <mxCell id="EdBRat70Bg2DFsznW1Ne-225" value="" style="rounded=0;whiteSpace=wrap;html=1;fillColor=none;dashed=1;dashPattern=8 8;strokeColor=#3399FF;" vertex="1" parent="1">
          <mxGeometry x="1110" y="440" width="130" height="40" as="geometry" />
        </mxCell>
        <mxCell id="EdBRat70Bg2DFsznW1Ne-226" value="" style="rounded=0;whiteSpace=wrap;html=1;fillColor=none;dashed=1;dashPattern=8 8;strokeColor=#3399FF;" vertex="1" parent="1">
          <mxGeometry x="980" y="480" width="130" height="40" as="geometry" />
        </mxCell>
        <mxCell id="EdBRat70Bg2DFsznW1Ne-227" value="" style="rounded=0;whiteSpace=wrap;html=1;fillColor=none;dashed=1;dashPattern=8 8;strokeColor=#3399FF;" vertex="1" parent="1">
          <mxGeometry x="1110" y="480" width="130" height="40" as="geometry" />
        </mxCell>
        <mxCell id="EdBRat70Bg2DFsznW1Ne-228" value="" style="rounded=0;whiteSpace=wrap;html=1;fillColor=none;dashed=1;dashPattern=8 8;strokeColor=#3399FF;" vertex="1" parent="1">
          <mxGeometry x="720" y="520" width="130" height="40" as="geometry" />
        </mxCell>
        <mxCell id="EdBRat70Bg2DFsznW1Ne-229" value="" style="rounded=0;whiteSpace=wrap;html=1;fillColor=none;dashed=1;dashPattern=8 8;strokeColor=#3399FF;" vertex="1" parent="1">
          <mxGeometry x="850" y="520" width="130" height="40" as="geometry" />
        </mxCell>
        <mxCell id="EdBRat70Bg2DFsznW1Ne-230" value="" style="rounded=0;whiteSpace=wrap;html=1;fillColor=none;dashed=1;dashPattern=8 8;strokeColor=#3399FF;" vertex="1" parent="1">
          <mxGeometry x="720" y="560" width="130" height="40" as="geometry" />
        </mxCell>
        <mxCell id="EdBRat70Bg2DFsznW1Ne-231" value="" style="rounded=0;whiteSpace=wrap;html=1;fillColor=none;dashed=1;dashPattern=8 8;strokeColor=#3399FF;" vertex="1" parent="1">
          <mxGeometry x="850" y="560" width="130" height="40" as="geometry" />
        </mxCell>
        <mxCell id="EdBRat70Bg2DFsznW1Ne-232" value="" style="rounded=0;whiteSpace=wrap;html=1;fillColor=none;dashed=1;dashPattern=8 8;strokeColor=#3399FF;" vertex="1" parent="1">
          <mxGeometry x="720" y="600" width="130" height="40" as="geometry" />
        </mxCell>
        <mxCell id="EdBRat70Bg2DFsznW1Ne-233" value="" style="rounded=0;whiteSpace=wrap;html=1;fillColor=none;dashed=1;dashPattern=8 8;strokeColor=#3399FF;" vertex="1" parent="1">
          <mxGeometry x="850" y="600" width="130" height="40" as="geometry" />
        </mxCell>
        <mxCell id="EdBRat70Bg2DFsznW1Ne-234" value="" style="rounded=0;whiteSpace=wrap;html=1;fillColor=none;dashed=1;dashPattern=8 8;strokeColor=#3399FF;" vertex="1" parent="1">
          <mxGeometry x="980" y="520" width="130" height="40" as="geometry" />
        </mxCell>
        <mxCell id="EdBRat70Bg2DFsznW1Ne-235" value="" style="rounded=0;whiteSpace=wrap;html=1;fillColor=none;dashed=1;dashPattern=8 8;strokeColor=#3399FF;" vertex="1" parent="1">
          <mxGeometry x="1110" y="520" width="130" height="40" as="geometry" />
        </mxCell>
        <mxCell id="EdBRat70Bg2DFsznW1Ne-236" value="" style="rounded=0;whiteSpace=wrap;html=1;fillColor=none;dashed=1;dashPattern=8 8;strokeColor=#3399FF;" vertex="1" parent="1">
          <mxGeometry x="980" y="560" width="130" height="40" as="geometry" />
        </mxCell>
        <mxCell id="EdBRat70Bg2DFsznW1Ne-237" value="" style="rounded=0;whiteSpace=wrap;html=1;fillColor=none;dashed=1;dashPattern=8 8;strokeColor=#3399FF;" vertex="1" parent="1">
          <mxGeometry x="1110" y="560" width="130" height="40" as="geometry" />
        </mxCell>
        <mxCell id="EdBRat70Bg2DFsznW1Ne-238" value="" style="rounded=0;whiteSpace=wrap;html=1;fillColor=none;dashed=1;dashPattern=8 8;strokeColor=#3399FF;" vertex="1" parent="1">
          <mxGeometry x="980" y="600" width="130" height="40" as="geometry" />
        </mxCell>
        <mxCell id="EdBRat70Bg2DFsznW1Ne-239" value="" style="rounded=0;whiteSpace=wrap;html=1;fillColor=none;dashed=1;dashPattern=8 8;strokeColor=#3399FF;" vertex="1" parent="1">
          <mxGeometry x="1110" y="600" width="130" height="40" as="geometry" />
        </mxCell>
        <mxCell id="EdBRat70Bg2DFsznW1Ne-240" value="" style="rounded=0;whiteSpace=wrap;html=1;fillColor=none;dashed=1;dashPattern=8 8;strokeColor=#3399FF;" vertex="1" parent="1">
          <mxGeometry x="200" y="640" width="130" height="40" as="geometry" />
        </mxCell>
        <mxCell id="EdBRat70Bg2DFsznW1Ne-241" value="" style="rounded=0;whiteSpace=wrap;html=1;fillColor=none;dashed=1;dashPattern=8 8;strokeColor=#3399FF;" vertex="1" parent="1">
          <mxGeometry x="330" y="640" width="130" height="40" as="geometry" />
        </mxCell>
        <mxCell id="EdBRat70Bg2DFsznW1Ne-242" value="" style="rounded=0;whiteSpace=wrap;html=1;fillColor=none;dashed=1;dashPattern=8 8;strokeColor=#3399FF;" vertex="1" parent="1">
          <mxGeometry x="200" y="680" width="130" height="40" as="geometry" />
        </mxCell>
        <mxCell id="EdBRat70Bg2DFsznW1Ne-243" value="" style="rounded=0;whiteSpace=wrap;html=1;fillColor=none;dashed=1;dashPattern=8 8;strokeColor=#3399FF;" vertex="1" parent="1">
          <mxGeometry x="330" y="680" width="130" height="40" as="geometry" />
        </mxCell>
        <mxCell id="EdBRat70Bg2DFsznW1Ne-244" value="" style="rounded=0;whiteSpace=wrap;html=1;fillColor=none;dashed=1;dashPattern=8 8;strokeColor=#3399FF;" vertex="1" parent="1">
          <mxGeometry x="200" y="720" width="130" height="40" as="geometry" />
        </mxCell>
        <mxCell id="EdBRat70Bg2DFsznW1Ne-245" value="" style="rounded=0;whiteSpace=wrap;html=1;fillColor=none;dashed=1;dashPattern=8 8;strokeColor=#3399FF;" vertex="1" parent="1">
          <mxGeometry x="330" y="720" width="130" height="40" as="geometry" />
        </mxCell>
        <mxCell id="EdBRat70Bg2DFsznW1Ne-246" value="" style="rounded=0;whiteSpace=wrap;html=1;fillColor=none;dashed=1;dashPattern=8 8;strokeColor=#3399FF;" vertex="1" parent="1">
          <mxGeometry x="460" y="640" width="130" height="40" as="geometry" />
        </mxCell>
        <mxCell id="EdBRat70Bg2DFsznW1Ne-247" value="" style="rounded=0;whiteSpace=wrap;html=1;fillColor=none;dashed=1;dashPattern=8 8;strokeColor=#3399FF;" vertex="1" parent="1">
          <mxGeometry x="590" y="640" width="130" height="40" as="geometry" />
        </mxCell>
        <mxCell id="EdBRat70Bg2DFsznW1Ne-248" value="" style="rounded=0;whiteSpace=wrap;html=1;fillColor=none;dashed=1;dashPattern=8 8;strokeColor=#3399FF;" vertex="1" parent="1">
          <mxGeometry x="460" y="680" width="130" height="40" as="geometry" />
        </mxCell>
        <mxCell id="EdBRat70Bg2DFsznW1Ne-249" value="" style="rounded=0;whiteSpace=wrap;html=1;fillColor=none;dashed=1;dashPattern=8 8;strokeColor=#3399FF;" vertex="1" parent="1">
          <mxGeometry x="590" y="680" width="130" height="40" as="geometry" />
        </mxCell>
        <mxCell id="EdBRat70Bg2DFsznW1Ne-250" value="" style="rounded=0;whiteSpace=wrap;html=1;fillColor=none;dashed=1;dashPattern=8 8;strokeColor=#3399FF;" vertex="1" parent="1">
          <mxGeometry x="460" y="720" width="130" height="40" as="geometry" />
        </mxCell>
        <mxCell id="EdBRat70Bg2DFsznW1Ne-251" value="" style="rounded=0;whiteSpace=wrap;html=1;fillColor=none;dashed=1;dashPattern=8 8;strokeColor=#3399FF;" vertex="1" parent="1">
          <mxGeometry x="590" y="720" width="130" height="40" as="geometry" />
        </mxCell>
        <mxCell id="EdBRat70Bg2DFsznW1Ne-252" value="" style="rounded=0;whiteSpace=wrap;html=1;fillColor=none;dashed=1;dashPattern=8 8;strokeColor=#3399FF;" vertex="1" parent="1">
          <mxGeometry x="200" y="760" width="130" height="40" as="geometry" />
        </mxCell>
        <mxCell id="EdBRat70Bg2DFsznW1Ne-253" value="" style="rounded=0;whiteSpace=wrap;html=1;fillColor=none;dashed=1;dashPattern=8 8;strokeColor=#3399FF;" vertex="1" parent="1">
          <mxGeometry x="330" y="760" width="130" height="40" as="geometry" />
        </mxCell>
        <mxCell id="EdBRat70Bg2DFsznW1Ne-254" value="" style="rounded=0;whiteSpace=wrap;html=1;fillColor=none;dashed=1;dashPattern=8 8;strokeColor=#3399FF;" vertex="1" parent="1">
          <mxGeometry x="200" y="800" width="130" height="40" as="geometry" />
        </mxCell>
        <mxCell id="EdBRat70Bg2DFsznW1Ne-255" value="" style="rounded=0;whiteSpace=wrap;html=1;fillColor=none;dashed=1;dashPattern=8 8;strokeColor=#3399FF;" vertex="1" parent="1">
          <mxGeometry x="330" y="800" width="130" height="40" as="geometry" />
        </mxCell>
        <mxCell id="EdBRat70Bg2DFsznW1Ne-256" value="" style="rounded=0;whiteSpace=wrap;html=1;fillColor=none;dashed=1;dashPattern=8 8;strokeColor=#3399FF;" vertex="1" parent="1">
          <mxGeometry x="200" y="840" width="130" height="40" as="geometry" />
        </mxCell>
        <mxCell id="EdBRat70Bg2DFsznW1Ne-257" value="" style="rounded=0;whiteSpace=wrap;html=1;fillColor=none;dashed=1;dashPattern=8 8;strokeColor=#3399FF;" vertex="1" parent="1">
          <mxGeometry x="330" y="840" width="130" height="40" as="geometry" />
        </mxCell>
        <mxCell id="EdBRat70Bg2DFsznW1Ne-258" value="" style="rounded=0;whiteSpace=wrap;html=1;fillColor=none;dashed=1;dashPattern=8 8;strokeColor=#3399FF;" vertex="1" parent="1">
          <mxGeometry x="460" y="760" width="130" height="40" as="geometry" />
        </mxCell>
        <mxCell id="EdBRat70Bg2DFsznW1Ne-259" value="" style="rounded=0;whiteSpace=wrap;html=1;fillColor=none;dashed=1;dashPattern=8 8;strokeColor=#3399FF;" vertex="1" parent="1">
          <mxGeometry x="590" y="760" width="130" height="40" as="geometry" />
        </mxCell>
        <mxCell id="EdBRat70Bg2DFsznW1Ne-260" value="" style="rounded=0;whiteSpace=wrap;html=1;fillColor=none;dashed=1;dashPattern=8 8;strokeColor=#3399FF;" vertex="1" parent="1">
          <mxGeometry x="460" y="800" width="130" height="40" as="geometry" />
        </mxCell>
        <mxCell id="EdBRat70Bg2DFsznW1Ne-261" value="" style="rounded=0;whiteSpace=wrap;html=1;fillColor=none;dashed=1;dashPattern=8 8;strokeColor=#3399FF;" vertex="1" parent="1">
          <mxGeometry x="590" y="800" width="130" height="40" as="geometry" />
        </mxCell>
        <mxCell id="EdBRat70Bg2DFsznW1Ne-262" value="" style="rounded=0;whiteSpace=wrap;html=1;fillColor=none;dashed=1;dashPattern=8 8;strokeColor=#3399FF;" vertex="1" parent="1">
          <mxGeometry x="460" y="840" width="130" height="40" as="geometry" />
        </mxCell>
        <mxCell id="EdBRat70Bg2DFsznW1Ne-263" value="" style="rounded=0;whiteSpace=wrap;html=1;fillColor=none;dashed=1;dashPattern=8 8;strokeColor=#3399FF;" vertex="1" parent="1">
          <mxGeometry x="590" y="840" width="130" height="40" as="geometry" />
        </mxCell>
        <mxCell id="EdBRat70Bg2DFsznW1Ne-264" value="" style="rounded=0;whiteSpace=wrap;html=1;fillColor=none;dashed=1;dashPattern=8 8;strokeColor=#3399FF;" vertex="1" parent="1">
          <mxGeometry x="720" y="640" width="130" height="40" as="geometry" />
        </mxCell>
        <mxCell id="EdBRat70Bg2DFsznW1Ne-265" value="" style="rounded=0;whiteSpace=wrap;html=1;fillColor=none;dashed=1;dashPattern=8 8;strokeColor=#3399FF;" vertex="1" parent="1">
          <mxGeometry x="850" y="640" width="130" height="40" as="geometry" />
        </mxCell>
        <mxCell id="EdBRat70Bg2DFsznW1Ne-266" value="" style="rounded=0;whiteSpace=wrap;html=1;fillColor=none;dashed=1;dashPattern=8 8;strokeColor=#3399FF;" vertex="1" parent="1">
          <mxGeometry x="720" y="680" width="130" height="40" as="geometry" />
        </mxCell>
        <mxCell id="EdBRat70Bg2DFsznW1Ne-267" value="" style="rounded=0;whiteSpace=wrap;html=1;fillColor=none;dashed=1;dashPattern=8 8;strokeColor=#3399FF;" vertex="1" parent="1">
          <mxGeometry x="850" y="680" width="130" height="40" as="geometry" />
        </mxCell>
        <mxCell id="EdBRat70Bg2DFsznW1Ne-268" value="" style="rounded=0;whiteSpace=wrap;html=1;fillColor=none;dashed=1;dashPattern=8 8;strokeColor=#3399FF;" vertex="1" parent="1">
          <mxGeometry x="720" y="720" width="130" height="40" as="geometry" />
        </mxCell>
        <mxCell id="EdBRat70Bg2DFsznW1Ne-269" value="" style="rounded=0;whiteSpace=wrap;html=1;fillColor=none;dashed=1;dashPattern=8 8;strokeColor=#3399FF;" vertex="1" parent="1">
          <mxGeometry x="850" y="720" width="130" height="40" as="geometry" />
        </mxCell>
        <mxCell id="EdBRat70Bg2DFsznW1Ne-270" value="" style="rounded=0;whiteSpace=wrap;html=1;fillColor=none;dashed=1;dashPattern=8 8;strokeColor=#3399FF;" vertex="1" parent="1">
          <mxGeometry x="980" y="640" width="130" height="40" as="geometry" />
        </mxCell>
        <mxCell id="EdBRat70Bg2DFsznW1Ne-271" value="" style="rounded=0;whiteSpace=wrap;html=1;fillColor=none;dashed=1;dashPattern=8 8;strokeColor=#3399FF;" vertex="1" parent="1">
          <mxGeometry x="1110" y="640" width="130" height="40" as="geometry" />
        </mxCell>
        <mxCell id="EdBRat70Bg2DFsznW1Ne-272" value="" style="rounded=0;whiteSpace=wrap;html=1;fillColor=none;dashed=1;dashPattern=8 8;strokeColor=#3399FF;" vertex="1" parent="1">
          <mxGeometry x="980" y="680" width="130" height="40" as="geometry" />
        </mxCell>
        <mxCell id="EdBRat70Bg2DFsznW1Ne-273" value="" style="rounded=0;whiteSpace=wrap;html=1;fillColor=none;dashed=1;dashPattern=8 8;strokeColor=#3399FF;" vertex="1" parent="1">
          <mxGeometry x="1110" y="680" width="130" height="40" as="geometry" />
        </mxCell>
        <mxCell id="EdBRat70Bg2DFsznW1Ne-274" value="" style="rounded=0;whiteSpace=wrap;html=1;fillColor=none;dashed=1;dashPattern=8 8;strokeColor=#3399FF;" vertex="1" parent="1">
          <mxGeometry x="980" y="720" width="130" height="40" as="geometry" />
        </mxCell>
        <mxCell id="EdBRat70Bg2DFsznW1Ne-275" value="" style="rounded=0;whiteSpace=wrap;html=1;fillColor=none;dashed=1;dashPattern=8 8;strokeColor=#3399FF;" vertex="1" parent="1">
          <mxGeometry x="1110" y="720" width="130" height="40" as="geometry" />
        </mxCell>
        <mxCell id="EdBRat70Bg2DFsznW1Ne-276" value="" style="rounded=0;whiteSpace=wrap;html=1;fillColor=none;dashed=1;dashPattern=8 8;strokeColor=#3399FF;" vertex="1" parent="1">
          <mxGeometry x="720" y="760" width="130" height="40" as="geometry" />
        </mxCell>
        <mxCell id="EdBRat70Bg2DFsznW1Ne-277" value="" style="rounded=0;whiteSpace=wrap;html=1;fillColor=none;dashed=1;dashPattern=8 8;strokeColor=#3399FF;" vertex="1" parent="1">
          <mxGeometry x="850" y="760" width="130" height="40" as="geometry" />
        </mxCell>
        <mxCell id="EdBRat70Bg2DFsznW1Ne-278" value="" style="rounded=0;whiteSpace=wrap;html=1;fillColor=none;dashed=1;dashPattern=8 8;strokeColor=#3399FF;" vertex="1" parent="1">
          <mxGeometry x="720" y="800" width="130" height="40" as="geometry" />
        </mxCell>
        <mxCell id="EdBRat70Bg2DFsznW1Ne-279" value="" style="rounded=0;whiteSpace=wrap;html=1;fillColor=none;dashed=1;dashPattern=8 8;strokeColor=#3399FF;" vertex="1" parent="1">
          <mxGeometry x="850" y="800" width="130" height="40" as="geometry" />
        </mxCell>
        <mxCell id="EdBRat70Bg2DFsznW1Ne-280" value="" style="rounded=0;whiteSpace=wrap;html=1;fillColor=none;dashed=1;dashPattern=8 8;strokeColor=#3399FF;" vertex="1" parent="1">
          <mxGeometry x="720" y="840" width="130" height="40" as="geometry" />
        </mxCell>
        <mxCell id="EdBRat70Bg2DFsznW1Ne-281" value="" style="rounded=0;whiteSpace=wrap;html=1;fillColor=none;dashed=1;dashPattern=8 8;strokeColor=#3399FF;" vertex="1" parent="1">
          <mxGeometry x="850" y="840" width="130" height="40" as="geometry" />
        </mxCell>
        <mxCell id="EdBRat70Bg2DFsznW1Ne-282" value="" style="rounded=0;whiteSpace=wrap;html=1;fillColor=none;dashed=1;dashPattern=8 8;strokeColor=#3399FF;" vertex="1" parent="1">
          <mxGeometry x="980" y="760" width="130" height="40" as="geometry" />
        </mxCell>
        <mxCell id="EdBRat70Bg2DFsznW1Ne-283" value="" style="rounded=0;whiteSpace=wrap;html=1;fillColor=none;dashed=1;dashPattern=8 8;strokeColor=#3399FF;" vertex="1" parent="1">
          <mxGeometry x="1110" y="760" width="130" height="40" as="geometry" />
        </mxCell>
        <mxCell id="EdBRat70Bg2DFsznW1Ne-284" value="" style="rounded=0;whiteSpace=wrap;html=1;fillColor=none;dashed=1;dashPattern=8 8;strokeColor=#3399FF;" vertex="1" parent="1">
          <mxGeometry x="980" y="800" width="130" height="40" as="geometry" />
        </mxCell>
        <mxCell id="EdBRat70Bg2DFsznW1Ne-285" value="" style="rounded=0;whiteSpace=wrap;html=1;fillColor=none;dashed=1;dashPattern=8 8;strokeColor=#3399FF;" vertex="1" parent="1">
          <mxGeometry x="1110" y="800" width="130" height="40" as="geometry" />
        </mxCell>
        <mxCell id="EdBRat70Bg2DFsznW1Ne-286" value="" style="rounded=0;whiteSpace=wrap;html=1;fillColor=none;dashed=1;dashPattern=8 8;strokeColor=#3399FF;" vertex="1" parent="1">
          <mxGeometry x="980" y="840" width="130" height="40" as="geometry" />
        </mxCell>
        <mxCell id="EdBRat70Bg2DFsznW1Ne-287" value="" style="rounded=0;whiteSpace=wrap;html=1;fillColor=none;dashed=1;dashPattern=8 8;strokeColor=#3399FF;" vertex="1" parent="1">
          <mxGeometry x="1110" y="840" width="130" height="40" as="geometry" />
        </mxCell>
        <mxCell id="EdBRat70Bg2DFsznW1Ne-313" value="" style="rounded=0;whiteSpace=wrap;html=1;fillColor=none;dashed=1;dashPattern=8 8;strokeColor=#3399FF;" vertex="1" parent="1">
          <mxGeometry x="1240" y="400" width="130" height="40" as="geometry" />
        </mxCell>
        <mxCell id="EdBRat70Bg2DFsznW1Ne-314" value="" style="rounded=0;whiteSpace=wrap;html=1;fillColor=none;dashed=1;dashPattern=8 8;strokeColor=#3399FF;" vertex="1" parent="1">
          <mxGeometry x="1370" y="400" width="130" height="40" as="geometry" />
        </mxCell>
        <mxCell id="EdBRat70Bg2DFsznW1Ne-315" value="" style="rounded=0;whiteSpace=wrap;html=1;fillColor=none;dashed=1;dashPattern=8 8;strokeColor=#3399FF;" vertex="1" parent="1">
          <mxGeometry x="1240" y="440" width="130" height="40" as="geometry" />
        </mxCell>
        <mxCell id="EdBRat70Bg2DFsznW1Ne-316" value="" style="rounded=0;whiteSpace=wrap;html=1;fillColor=none;dashed=1;dashPattern=8 8;strokeColor=#3399FF;" vertex="1" parent="1">
          <mxGeometry x="1370" y="440" width="130" height="40" as="geometry" />
        </mxCell>
        <mxCell id="EdBRat70Bg2DFsznW1Ne-317" value="" style="rounded=0;whiteSpace=wrap;html=1;fillColor=none;dashed=1;dashPattern=8 8;strokeColor=#3399FF;" vertex="1" parent="1">
          <mxGeometry x="1240" y="480" width="130" height="40" as="geometry" />
        </mxCell>
        <mxCell id="EdBRat70Bg2DFsznW1Ne-318" value="" style="rounded=0;whiteSpace=wrap;html=1;fillColor=none;dashed=1;dashPattern=8 8;strokeColor=#3399FF;" vertex="1" parent="1">
          <mxGeometry x="1370" y="480" width="130" height="40" as="geometry" />
        </mxCell>
        <mxCell id="EdBRat70Bg2DFsznW1Ne-319" value="" style="rounded=0;whiteSpace=wrap;html=1;fillColor=none;dashed=1;dashPattern=8 8;strokeColor=#3399FF;" vertex="1" parent="1">
          <mxGeometry x="1500" y="400" width="130" height="40" as="geometry" />
        </mxCell>
        <mxCell id="EdBRat70Bg2DFsznW1Ne-320" value="" style="rounded=0;whiteSpace=wrap;html=1;fillColor=none;dashed=1;dashPattern=8 8;strokeColor=#3399FF;" vertex="1" parent="1">
          <mxGeometry x="1630" y="400" width="130" height="40" as="geometry" />
        </mxCell>
        <mxCell id="EdBRat70Bg2DFsznW1Ne-321" value="" style="rounded=0;whiteSpace=wrap;html=1;fillColor=none;dashed=1;dashPattern=8 8;strokeColor=#3399FF;" vertex="1" parent="1">
          <mxGeometry x="1500" y="440" width="130" height="40" as="geometry" />
        </mxCell>
        <mxCell id="EdBRat70Bg2DFsznW1Ne-322" value="" style="rounded=0;whiteSpace=wrap;html=1;fillColor=none;dashed=1;dashPattern=8 8;strokeColor=#3399FF;" vertex="1" parent="1">
          <mxGeometry x="1630" y="440" width="130" height="40" as="geometry" />
        </mxCell>
        <mxCell id="EdBRat70Bg2DFsznW1Ne-323" value="" style="rounded=0;whiteSpace=wrap;html=1;fillColor=none;dashed=1;dashPattern=8 8;strokeColor=#3399FF;" vertex="1" parent="1">
          <mxGeometry x="1500" y="480" width="130" height="40" as="geometry" />
        </mxCell>
        <mxCell id="EdBRat70Bg2DFsznW1Ne-324" value="" style="rounded=0;whiteSpace=wrap;html=1;fillColor=none;dashed=1;dashPattern=8 8;strokeColor=#3399FF;" vertex="1" parent="1">
          <mxGeometry x="1630" y="480" width="130" height="40" as="geometry" />
        </mxCell>
        <mxCell id="EdBRat70Bg2DFsznW1Ne-325" value="" style="rounded=0;whiteSpace=wrap;html=1;fillColor=none;dashed=1;dashPattern=8 8;strokeColor=#3399FF;" vertex="1" parent="1">
          <mxGeometry x="1240" y="520" width="130" height="40" as="geometry" />
        </mxCell>
        <mxCell id="EdBRat70Bg2DFsznW1Ne-326" value="" style="rounded=0;whiteSpace=wrap;html=1;fillColor=none;dashed=1;dashPattern=8 8;strokeColor=#3399FF;" vertex="1" parent="1">
          <mxGeometry x="1370" y="520" width="130" height="40" as="geometry" />
        </mxCell>
        <mxCell id="EdBRat70Bg2DFsznW1Ne-327" value="" style="rounded=0;whiteSpace=wrap;html=1;fillColor=none;dashed=1;dashPattern=8 8;strokeColor=#3399FF;" vertex="1" parent="1">
          <mxGeometry x="1240" y="560" width="130" height="40" as="geometry" />
        </mxCell>
        <mxCell id="EdBRat70Bg2DFsznW1Ne-328" value="" style="rounded=0;whiteSpace=wrap;html=1;fillColor=none;dashed=1;dashPattern=8 8;strokeColor=#3399FF;" vertex="1" parent="1">
          <mxGeometry x="1370" y="560" width="130" height="40" as="geometry" />
        </mxCell>
        <mxCell id="EdBRat70Bg2DFsznW1Ne-329" value="" style="rounded=0;whiteSpace=wrap;html=1;fillColor=none;dashed=1;dashPattern=8 8;strokeColor=#3399FF;" vertex="1" parent="1">
          <mxGeometry x="1240" y="600" width="130" height="40" as="geometry" />
        </mxCell>
        <mxCell id="EdBRat70Bg2DFsznW1Ne-330" value="" style="rounded=0;whiteSpace=wrap;html=1;fillColor=none;dashed=1;dashPattern=8 8;strokeColor=#3399FF;" vertex="1" parent="1">
          <mxGeometry x="1370" y="600" width="130" height="40" as="geometry" />
        </mxCell>
        <mxCell id="EdBRat70Bg2DFsznW1Ne-331" value="" style="rounded=0;whiteSpace=wrap;html=1;fillColor=none;dashed=1;dashPattern=8 8;strokeColor=#3399FF;" vertex="1" parent="1">
          <mxGeometry x="1500" y="520" width="130" height="40" as="geometry" />
        </mxCell>
        <mxCell id="EdBRat70Bg2DFsznW1Ne-332" value="" style="rounded=0;whiteSpace=wrap;html=1;fillColor=none;dashed=1;dashPattern=8 8;strokeColor=#3399FF;" vertex="1" parent="1">
          <mxGeometry x="1630" y="520" width="130" height="40" as="geometry" />
        </mxCell>
        <mxCell id="EdBRat70Bg2DFsznW1Ne-333" value="" style="rounded=0;whiteSpace=wrap;html=1;fillColor=none;dashed=1;dashPattern=8 8;strokeColor=#3399FF;" vertex="1" parent="1">
          <mxGeometry x="1500" y="560" width="130" height="40" as="geometry" />
        </mxCell>
        <mxCell id="EdBRat70Bg2DFsznW1Ne-334" value="" style="rounded=0;whiteSpace=wrap;html=1;fillColor=none;dashed=1;dashPattern=8 8;strokeColor=#3399FF;" vertex="1" parent="1">
          <mxGeometry x="1630" y="560" width="130" height="40" as="geometry" />
        </mxCell>
        <mxCell id="EdBRat70Bg2DFsznW1Ne-335" value="" style="rounded=0;whiteSpace=wrap;html=1;fillColor=none;dashed=1;dashPattern=8 8;strokeColor=#3399FF;" vertex="1" parent="1">
          <mxGeometry x="1500" y="600" width="130" height="40" as="geometry" />
        </mxCell>
        <mxCell id="EdBRat70Bg2DFsznW1Ne-336" value="" style="rounded=0;whiteSpace=wrap;html=1;fillColor=none;dashed=1;dashPattern=8 8;strokeColor=#3399FF;" vertex="1" parent="1">
          <mxGeometry x="1630" y="600" width="130" height="40" as="geometry" />
        </mxCell>
        <mxCell id="EdBRat70Bg2DFsznW1Ne-337" value="" style="rounded=0;whiteSpace=wrap;html=1;fillColor=none;dashed=1;dashPattern=8 8;strokeColor=#3399FF;" vertex="1" parent="1">
          <mxGeometry x="1240" y="640" width="130" height="40" as="geometry" />
        </mxCell>
        <mxCell id="EdBRat70Bg2DFsznW1Ne-338" value="" style="rounded=0;whiteSpace=wrap;html=1;fillColor=none;dashed=1;dashPattern=8 8;strokeColor=#3399FF;" vertex="1" parent="1">
          <mxGeometry x="1370" y="640" width="130" height="40" as="geometry" />
        </mxCell>
        <mxCell id="EdBRat70Bg2DFsznW1Ne-339" value="" style="rounded=0;whiteSpace=wrap;html=1;fillColor=none;dashed=1;dashPattern=8 8;strokeColor=#3399FF;" vertex="1" parent="1">
          <mxGeometry x="1240" y="680" width="130" height="40" as="geometry" />
        </mxCell>
        <mxCell id="EdBRat70Bg2DFsznW1Ne-340" value="" style="rounded=0;whiteSpace=wrap;html=1;fillColor=none;dashed=1;dashPattern=8 8;strokeColor=#3399FF;" vertex="1" parent="1">
          <mxGeometry x="1370" y="680" width="130" height="40" as="geometry" />
        </mxCell>
        <mxCell id="EdBRat70Bg2DFsznW1Ne-341" value="" style="rounded=0;whiteSpace=wrap;html=1;fillColor=none;dashed=1;dashPattern=8 8;strokeColor=#3399FF;" vertex="1" parent="1">
          <mxGeometry x="1240" y="720" width="130" height="40" as="geometry" />
        </mxCell>
        <mxCell id="EdBRat70Bg2DFsznW1Ne-342" value="" style="rounded=0;whiteSpace=wrap;html=1;fillColor=none;dashed=1;dashPattern=8 8;strokeColor=#3399FF;" vertex="1" parent="1">
          <mxGeometry x="1370" y="720" width="130" height="40" as="geometry" />
        </mxCell>
        <mxCell id="EdBRat70Bg2DFsznW1Ne-343" value="" style="rounded=0;whiteSpace=wrap;html=1;fillColor=none;dashed=1;dashPattern=8 8;strokeColor=#3399FF;" vertex="1" parent="1">
          <mxGeometry x="1500" y="640" width="130" height="40" as="geometry" />
        </mxCell>
        <mxCell id="EdBRat70Bg2DFsznW1Ne-344" value="" style="rounded=0;whiteSpace=wrap;html=1;fillColor=none;dashed=1;dashPattern=8 8;strokeColor=#3399FF;" vertex="1" parent="1">
          <mxGeometry x="1630" y="640" width="130" height="40" as="geometry" />
        </mxCell>
        <mxCell id="EdBRat70Bg2DFsznW1Ne-345" value="" style="rounded=0;whiteSpace=wrap;html=1;fillColor=none;dashed=1;dashPattern=8 8;strokeColor=#3399FF;" vertex="1" parent="1">
          <mxGeometry x="1500" y="680" width="130" height="40" as="geometry" />
        </mxCell>
        <mxCell id="EdBRat70Bg2DFsznW1Ne-346" value="" style="rounded=0;whiteSpace=wrap;html=1;fillColor=none;dashed=1;dashPattern=8 8;strokeColor=#3399FF;" vertex="1" parent="1">
          <mxGeometry x="1630" y="680" width="130" height="40" as="geometry" />
        </mxCell>
        <mxCell id="EdBRat70Bg2DFsznW1Ne-347" value="" style="rounded=0;whiteSpace=wrap;html=1;fillColor=none;dashed=1;dashPattern=8 8;strokeColor=#3399FF;" vertex="1" parent="1">
          <mxGeometry x="1500" y="720" width="130" height="40" as="geometry" />
        </mxCell>
        <mxCell id="EdBRat70Bg2DFsznW1Ne-348" value="" style="rounded=0;whiteSpace=wrap;html=1;fillColor=none;dashed=1;dashPattern=8 8;strokeColor=#3399FF;" vertex="1" parent="1">
          <mxGeometry x="1630" y="720" width="130" height="40" as="geometry" />
        </mxCell>
        <mxCell id="EdBRat70Bg2DFsznW1Ne-349" value="" style="rounded=0;whiteSpace=wrap;html=1;fillColor=none;dashed=1;dashPattern=8 8;strokeColor=#3399FF;" vertex="1" parent="1">
          <mxGeometry x="1240" y="760" width="130" height="40" as="geometry" />
        </mxCell>
        <mxCell id="EdBRat70Bg2DFsznW1Ne-350" value="" style="rounded=0;whiteSpace=wrap;html=1;fillColor=none;dashed=1;dashPattern=8 8;strokeColor=#3399FF;" vertex="1" parent="1">
          <mxGeometry x="1370" y="760" width="130" height="40" as="geometry" />
        </mxCell>
        <mxCell id="EdBRat70Bg2DFsznW1Ne-351" value="" style="rounded=0;whiteSpace=wrap;html=1;fillColor=none;dashed=1;dashPattern=8 8;strokeColor=#3399FF;" vertex="1" parent="1">
          <mxGeometry x="1240" y="800" width="130" height="40" as="geometry" />
        </mxCell>
        <mxCell id="EdBRat70Bg2DFsznW1Ne-352" value="" style="rounded=0;whiteSpace=wrap;html=1;fillColor=none;dashed=1;dashPattern=8 8;strokeColor=#3399FF;" vertex="1" parent="1">
          <mxGeometry x="1370" y="800" width="130" height="40" as="geometry" />
        </mxCell>
        <mxCell id="EdBRat70Bg2DFsznW1Ne-353" value="" style="rounded=0;whiteSpace=wrap;html=1;fillColor=none;dashed=1;dashPattern=8 8;strokeColor=#3399FF;" vertex="1" parent="1">
          <mxGeometry x="1240" y="840" width="130" height="40" as="geometry" />
        </mxCell>
        <mxCell id="EdBRat70Bg2DFsznW1Ne-354" value="" style="rounded=0;whiteSpace=wrap;html=1;fillColor=none;dashed=1;dashPattern=8 8;strokeColor=#3399FF;" vertex="1" parent="1">
          <mxGeometry x="1370" y="840" width="130" height="40" as="geometry" />
        </mxCell>
        <mxCell id="EdBRat70Bg2DFsznW1Ne-355" value="" style="rounded=0;whiteSpace=wrap;html=1;fillColor=none;dashed=1;dashPattern=8 8;strokeColor=#3399FF;" vertex="1" parent="1">
          <mxGeometry x="1500" y="760" width="130" height="40" as="geometry" />
        </mxCell>
        <mxCell id="EdBRat70Bg2DFsznW1Ne-356" value="" style="rounded=0;whiteSpace=wrap;html=1;fillColor=none;dashed=1;dashPattern=8 8;strokeColor=#3399FF;" vertex="1" parent="1">
          <mxGeometry x="1630" y="760" width="130" height="40" as="geometry" />
        </mxCell>
        <mxCell id="EdBRat70Bg2DFsznW1Ne-357" value="" style="rounded=0;whiteSpace=wrap;html=1;fillColor=none;dashed=1;dashPattern=8 8;strokeColor=#3399FF;" vertex="1" parent="1">
          <mxGeometry x="1500" y="800" width="130" height="40" as="geometry" />
        </mxCell>
        <mxCell id="EdBRat70Bg2DFsznW1Ne-358" value="" style="rounded=0;whiteSpace=wrap;html=1;fillColor=none;dashed=1;dashPattern=8 8;strokeColor=#3399FF;" vertex="1" parent="1">
          <mxGeometry x="1630" y="800" width="130" height="40" as="geometry" />
        </mxCell>
        <mxCell id="EdBRat70Bg2DFsznW1Ne-359" value="" style="rounded=0;whiteSpace=wrap;html=1;fillColor=none;dashed=1;dashPattern=8 8;strokeColor=#3399FF;" vertex="1" parent="1">
          <mxGeometry x="1500" y="840" width="130" height="40" as="geometry" />
        </mxCell>
        <mxCell id="EdBRat70Bg2DFsznW1Ne-360" value="" style="rounded=0;whiteSpace=wrap;html=1;fillColor=none;dashed=1;dashPattern=8 8;strokeColor=#3399FF;" vertex="1" parent="1">
          <mxGeometry x="1630" y="840" width="130" height="40" as="geometry" />
        </mxCell>
        <mxCell id="EdBRat70Bg2DFsznW1Ne-361" value="" style="rounded=0;whiteSpace=wrap;html=1;fillColor=none;dashed=1;dashPattern=8 8;strokeColor=#3399FF;" vertex="1" parent="1">
          <mxGeometry x="200" y="880" width="130" height="40" as="geometry" />
        </mxCell>
        <mxCell id="EdBRat70Bg2DFsznW1Ne-362" value="" style="rounded=0;whiteSpace=wrap;html=1;fillColor=none;dashed=1;dashPattern=8 8;strokeColor=#3399FF;" vertex="1" parent="1">
          <mxGeometry x="330" y="880" width="130" height="40" as="geometry" />
        </mxCell>
        <mxCell id="EdBRat70Bg2DFsznW1Ne-363" value="" style="rounded=0;whiteSpace=wrap;html=1;fillColor=none;dashed=1;dashPattern=8 8;strokeColor=#3399FF;" vertex="1" parent="1">
          <mxGeometry x="200" y="920" width="130" height="40" as="geometry" />
        </mxCell>
        <mxCell id="EdBRat70Bg2DFsznW1Ne-364" value="" style="rounded=0;whiteSpace=wrap;html=1;fillColor=none;dashed=1;dashPattern=8 8;strokeColor=#3399FF;" vertex="1" parent="1">
          <mxGeometry x="330" y="920" width="130" height="40" as="geometry" />
        </mxCell>
        <mxCell id="EdBRat70Bg2DFsznW1Ne-365" value="" style="rounded=0;whiteSpace=wrap;html=1;fillColor=none;dashed=1;dashPattern=8 8;strokeColor=#3399FF;" vertex="1" parent="1">
          <mxGeometry x="200" y="960" width="130" height="40" as="geometry" />
        </mxCell>
        <mxCell id="EdBRat70Bg2DFsznW1Ne-366" value="" style="rounded=0;whiteSpace=wrap;html=1;fillColor=none;dashed=1;dashPattern=8 8;strokeColor=#3399FF;" vertex="1" parent="1">
          <mxGeometry x="330" y="960" width="130" height="40" as="geometry" />
        </mxCell>
        <mxCell id="EdBRat70Bg2DFsznW1Ne-367" value="" style="rounded=0;whiteSpace=wrap;html=1;fillColor=none;dashed=1;dashPattern=8 8;strokeColor=#3399FF;" vertex="1" parent="1">
          <mxGeometry x="460" y="880" width="130" height="40" as="geometry" />
        </mxCell>
        <mxCell id="EdBRat70Bg2DFsznW1Ne-368" value="" style="rounded=0;whiteSpace=wrap;html=1;fillColor=none;dashed=1;dashPattern=8 8;strokeColor=#3399FF;" vertex="1" parent="1">
          <mxGeometry x="590" y="880" width="130" height="40" as="geometry" />
        </mxCell>
        <mxCell id="EdBRat70Bg2DFsznW1Ne-369" value="" style="rounded=0;whiteSpace=wrap;html=1;fillColor=none;dashed=1;dashPattern=8 8;strokeColor=#3399FF;" vertex="1" parent="1">
          <mxGeometry x="460" y="920" width="130" height="40" as="geometry" />
        </mxCell>
        <mxCell id="EdBRat70Bg2DFsznW1Ne-370" value="" style="rounded=0;whiteSpace=wrap;html=1;fillColor=none;dashed=1;dashPattern=8 8;strokeColor=#3399FF;" vertex="1" parent="1">
          <mxGeometry x="590" y="920" width="130" height="40" as="geometry" />
        </mxCell>
        <mxCell id="EdBRat70Bg2DFsznW1Ne-371" value="" style="rounded=0;whiteSpace=wrap;html=1;fillColor=none;dashed=1;dashPattern=8 8;strokeColor=#3399FF;" vertex="1" parent="1">
          <mxGeometry x="460" y="960" width="130" height="40" as="geometry" />
        </mxCell>
        <mxCell id="EdBRat70Bg2DFsznW1Ne-372" value="" style="rounded=0;whiteSpace=wrap;html=1;fillColor=none;dashed=1;dashPattern=8 8;strokeColor=#3399FF;" vertex="1" parent="1">
          <mxGeometry x="590" y="960" width="130" height="40" as="geometry" />
        </mxCell>
        <mxCell id="EdBRat70Bg2DFsznW1Ne-373" value="" style="rounded=0;whiteSpace=wrap;html=1;fillColor=none;dashed=1;dashPattern=8 8;strokeColor=#3399FF;" vertex="1" parent="1">
          <mxGeometry x="200" y="1000" width="130" height="40" as="geometry" />
        </mxCell>
        <mxCell id="EdBRat70Bg2DFsznW1Ne-374" value="" style="rounded=0;whiteSpace=wrap;html=1;fillColor=none;dashed=1;dashPattern=8 8;strokeColor=#3399FF;" vertex="1" parent="1">
          <mxGeometry x="330" y="1000" width="130" height="40" as="geometry" />
        </mxCell>
        <mxCell id="EdBRat70Bg2DFsznW1Ne-375" value="" style="rounded=0;whiteSpace=wrap;html=1;fillColor=none;dashed=1;dashPattern=8 8;strokeColor=#3399FF;" vertex="1" parent="1">
          <mxGeometry x="200" y="1040" width="130" height="40" as="geometry" />
        </mxCell>
        <mxCell id="EdBRat70Bg2DFsznW1Ne-376" value="" style="rounded=0;whiteSpace=wrap;html=1;fillColor=none;dashed=1;dashPattern=8 8;strokeColor=#3399FF;" vertex="1" parent="1">
          <mxGeometry x="330" y="1040" width="130" height="40" as="geometry" />
        </mxCell>
        <mxCell id="EdBRat70Bg2DFsznW1Ne-377" value="" style="rounded=0;whiteSpace=wrap;html=1;fillColor=none;dashed=1;dashPattern=8 8;strokeColor=#3399FF;" vertex="1" parent="1">
          <mxGeometry x="200" y="1080" width="130" height="40" as="geometry" />
        </mxCell>
        <mxCell id="EdBRat70Bg2DFsznW1Ne-378" value="" style="rounded=0;whiteSpace=wrap;html=1;fillColor=none;dashed=1;dashPattern=8 8;strokeColor=#3399FF;" vertex="1" parent="1">
          <mxGeometry x="330" y="1080" width="130" height="40" as="geometry" />
        </mxCell>
        <mxCell id="EdBRat70Bg2DFsznW1Ne-379" value="" style="rounded=0;whiteSpace=wrap;html=1;fillColor=none;dashed=1;dashPattern=8 8;strokeColor=#3399FF;" vertex="1" parent="1">
          <mxGeometry x="460" y="1000" width="130" height="40" as="geometry" />
        </mxCell>
        <mxCell id="EdBRat70Bg2DFsznW1Ne-380" value="" style="rounded=0;whiteSpace=wrap;html=1;fillColor=none;dashed=1;dashPattern=8 8;strokeColor=#3399FF;" vertex="1" parent="1">
          <mxGeometry x="590" y="1000" width="130" height="40" as="geometry" />
        </mxCell>
        <mxCell id="EdBRat70Bg2DFsznW1Ne-381" value="" style="rounded=0;whiteSpace=wrap;html=1;fillColor=none;dashed=1;dashPattern=8 8;strokeColor=#3399FF;" vertex="1" parent="1">
          <mxGeometry x="460" y="1040" width="130" height="40" as="geometry" />
        </mxCell>
        <mxCell id="EdBRat70Bg2DFsznW1Ne-382" value="" style="rounded=0;whiteSpace=wrap;html=1;fillColor=none;dashed=1;dashPattern=8 8;strokeColor=#3399FF;" vertex="1" parent="1">
          <mxGeometry x="590" y="1040" width="130" height="40" as="geometry" />
        </mxCell>
        <mxCell id="EdBRat70Bg2DFsznW1Ne-383" value="" style="rounded=0;whiteSpace=wrap;html=1;fillColor=none;dashed=1;dashPattern=8 8;strokeColor=#3399FF;" vertex="1" parent="1">
          <mxGeometry x="460" y="1080" width="130" height="40" as="geometry" />
        </mxCell>
        <mxCell id="EdBRat70Bg2DFsznW1Ne-384" value="" style="rounded=0;whiteSpace=wrap;html=1;fillColor=none;dashed=1;dashPattern=8 8;strokeColor=#3399FF;" vertex="1" parent="1">
          <mxGeometry x="590" y="1080" width="130" height="40" as="geometry" />
        </mxCell>
        <mxCell id="EdBRat70Bg2DFsznW1Ne-385" value="" style="rounded=0;whiteSpace=wrap;html=1;fillColor=none;dashed=1;dashPattern=8 8;strokeColor=#3399FF;" vertex="1" parent="1">
          <mxGeometry x="720" y="880" width="130" height="40" as="geometry" />
        </mxCell>
        <mxCell id="EdBRat70Bg2DFsznW1Ne-386" value="" style="rounded=0;whiteSpace=wrap;html=1;fillColor=none;dashed=1;dashPattern=8 8;strokeColor=#3399FF;" vertex="1" parent="1">
          <mxGeometry x="850" y="880" width="130" height="40" as="geometry" />
        </mxCell>
        <mxCell id="EdBRat70Bg2DFsznW1Ne-387" value="" style="rounded=0;whiteSpace=wrap;html=1;fillColor=none;dashed=1;dashPattern=8 8;strokeColor=#3399FF;" vertex="1" parent="1">
          <mxGeometry x="720" y="920" width="130" height="40" as="geometry" />
        </mxCell>
        <mxCell id="EdBRat70Bg2DFsznW1Ne-388" value="" style="rounded=0;whiteSpace=wrap;html=1;fillColor=none;dashed=1;dashPattern=8 8;strokeColor=#3399FF;" vertex="1" parent="1">
          <mxGeometry x="850" y="920" width="130" height="40" as="geometry" />
        </mxCell>
        <mxCell id="EdBRat70Bg2DFsznW1Ne-389" value="" style="rounded=0;whiteSpace=wrap;html=1;fillColor=none;dashed=1;dashPattern=8 8;strokeColor=#3399FF;" vertex="1" parent="1">
          <mxGeometry x="720" y="960" width="130" height="40" as="geometry" />
        </mxCell>
        <mxCell id="EdBRat70Bg2DFsznW1Ne-390" value="" style="rounded=0;whiteSpace=wrap;html=1;fillColor=none;dashed=1;dashPattern=8 8;strokeColor=#3399FF;" vertex="1" parent="1">
          <mxGeometry x="850" y="960" width="130" height="40" as="geometry" />
        </mxCell>
        <mxCell id="EdBRat70Bg2DFsznW1Ne-391" value="" style="rounded=0;whiteSpace=wrap;html=1;fillColor=none;dashed=1;dashPattern=8 8;strokeColor=#3399FF;" vertex="1" parent="1">
          <mxGeometry x="980" y="880" width="130" height="40" as="geometry" />
        </mxCell>
        <mxCell id="EdBRat70Bg2DFsznW1Ne-392" value="" style="rounded=0;whiteSpace=wrap;html=1;fillColor=none;dashed=1;dashPattern=8 8;strokeColor=#3399FF;" vertex="1" parent="1">
          <mxGeometry x="1110" y="880" width="130" height="40" as="geometry" />
        </mxCell>
        <mxCell id="EdBRat70Bg2DFsznW1Ne-393" value="" style="rounded=0;whiteSpace=wrap;html=1;fillColor=none;dashed=1;dashPattern=8 8;strokeColor=#3399FF;" vertex="1" parent="1">
          <mxGeometry x="980" y="920" width="130" height="40" as="geometry" />
        </mxCell>
        <mxCell id="EdBRat70Bg2DFsznW1Ne-394" value="" style="rounded=0;whiteSpace=wrap;html=1;fillColor=none;dashed=1;dashPattern=8 8;strokeColor=#3399FF;" vertex="1" parent="1">
          <mxGeometry x="1110" y="920" width="130" height="40" as="geometry" />
        </mxCell>
        <mxCell id="EdBRat70Bg2DFsznW1Ne-395" value="" style="rounded=0;whiteSpace=wrap;html=1;fillColor=none;dashed=1;dashPattern=8 8;strokeColor=#3399FF;" vertex="1" parent="1">
          <mxGeometry x="980" y="960" width="130" height="40" as="geometry" />
        </mxCell>
        <mxCell id="EdBRat70Bg2DFsznW1Ne-396" value="" style="rounded=0;whiteSpace=wrap;html=1;fillColor=none;dashed=1;dashPattern=8 8;strokeColor=#3399FF;" vertex="1" parent="1">
          <mxGeometry x="1110" y="960" width="130" height="40" as="geometry" />
        </mxCell>
        <mxCell id="EdBRat70Bg2DFsznW1Ne-397" value="" style="rounded=0;whiteSpace=wrap;html=1;fillColor=none;dashed=1;dashPattern=8 8;strokeColor=#3399FF;" vertex="1" parent="1">
          <mxGeometry x="720" y="1000" width="130" height="40" as="geometry" />
        </mxCell>
        <mxCell id="EdBRat70Bg2DFsznW1Ne-398" value="" style="rounded=0;whiteSpace=wrap;html=1;fillColor=none;dashed=1;dashPattern=8 8;strokeColor=#3399FF;" vertex="1" parent="1">
          <mxGeometry x="850" y="1000" width="130" height="40" as="geometry" />
        </mxCell>
        <mxCell id="EdBRat70Bg2DFsznW1Ne-399" value="" style="rounded=0;whiteSpace=wrap;html=1;fillColor=none;dashed=1;dashPattern=8 8;strokeColor=#3399FF;" vertex="1" parent="1">
          <mxGeometry x="720" y="1040" width="130" height="40" as="geometry" />
        </mxCell>
        <mxCell id="EdBRat70Bg2DFsznW1Ne-400" value="" style="rounded=0;whiteSpace=wrap;html=1;fillColor=none;dashed=1;dashPattern=8 8;strokeColor=#3399FF;" vertex="1" parent="1">
          <mxGeometry x="850" y="1040" width="130" height="40" as="geometry" />
        </mxCell>
        <mxCell id="EdBRat70Bg2DFsznW1Ne-401" value="" style="rounded=0;whiteSpace=wrap;html=1;fillColor=none;dashed=1;dashPattern=8 8;strokeColor=#3399FF;" vertex="1" parent="1">
          <mxGeometry x="720" y="1080" width="130" height="40" as="geometry" />
        </mxCell>
        <mxCell id="EdBRat70Bg2DFsznW1Ne-402" value="" style="rounded=0;whiteSpace=wrap;html=1;fillColor=none;dashed=1;dashPattern=8 8;strokeColor=#3399FF;" vertex="1" parent="1">
          <mxGeometry x="850" y="1080" width="130" height="40" as="geometry" />
        </mxCell>
        <mxCell id="EdBRat70Bg2DFsznW1Ne-403" value="" style="rounded=0;whiteSpace=wrap;html=1;fillColor=none;dashed=1;dashPattern=8 8;strokeColor=#3399FF;" vertex="1" parent="1">
          <mxGeometry x="980" y="1000" width="130" height="40" as="geometry" />
        </mxCell>
        <mxCell id="EdBRat70Bg2DFsznW1Ne-404" value="" style="rounded=0;whiteSpace=wrap;html=1;fillColor=none;dashed=1;dashPattern=8 8;strokeColor=#3399FF;" vertex="1" parent="1">
          <mxGeometry x="1110" y="1000" width="130" height="40" as="geometry" />
        </mxCell>
        <mxCell id="EdBRat70Bg2DFsznW1Ne-405" value="" style="rounded=0;whiteSpace=wrap;html=1;fillColor=none;dashed=1;dashPattern=8 8;strokeColor=#3399FF;" vertex="1" parent="1">
          <mxGeometry x="980" y="1040" width="130" height="40" as="geometry" />
        </mxCell>
        <mxCell id="EdBRat70Bg2DFsznW1Ne-406" value="" style="rounded=0;whiteSpace=wrap;html=1;fillColor=none;dashed=1;dashPattern=8 8;strokeColor=#3399FF;" vertex="1" parent="1">
          <mxGeometry x="1110" y="1040" width="130" height="40" as="geometry" />
        </mxCell>
        <mxCell id="EdBRat70Bg2DFsznW1Ne-407" value="" style="rounded=0;whiteSpace=wrap;html=1;fillColor=none;dashed=1;dashPattern=8 8;strokeColor=#3399FF;" vertex="1" parent="1">
          <mxGeometry x="980" y="1080" width="130" height="40" as="geometry" />
        </mxCell>
        <mxCell id="EdBRat70Bg2DFsznW1Ne-408" value="" style="rounded=0;whiteSpace=wrap;html=1;fillColor=none;dashed=1;dashPattern=8 8;strokeColor=#3399FF;" vertex="1" parent="1">
          <mxGeometry x="1110" y="1080" width="130" height="40" as="geometry" />
        </mxCell>
        <mxCell id="EdBRat70Bg2DFsznW1Ne-409" value="" style="rounded=0;whiteSpace=wrap;html=1;fillColor=none;dashed=1;dashPattern=8 8;strokeColor=#3399FF;" vertex="1" parent="1">
          <mxGeometry x="1240" y="880" width="130" height="40" as="geometry" />
        </mxCell>
        <mxCell id="EdBRat70Bg2DFsznW1Ne-410" value="" style="rounded=0;whiteSpace=wrap;html=1;fillColor=none;dashed=1;dashPattern=8 8;strokeColor=#3399FF;" vertex="1" parent="1">
          <mxGeometry x="1370" y="880" width="130" height="40" as="geometry" />
        </mxCell>
        <mxCell id="EdBRat70Bg2DFsznW1Ne-411" value="" style="rounded=0;whiteSpace=wrap;html=1;fillColor=none;dashed=1;dashPattern=8 8;strokeColor=#3399FF;" vertex="1" parent="1">
          <mxGeometry x="1240" y="920" width="130" height="40" as="geometry" />
        </mxCell>
        <mxCell id="EdBRat70Bg2DFsznW1Ne-412" value="" style="rounded=0;whiteSpace=wrap;html=1;fillColor=none;dashed=1;dashPattern=8 8;strokeColor=#3399FF;" vertex="1" parent="1">
          <mxGeometry x="1370" y="920" width="130" height="40" as="geometry" />
        </mxCell>
        <mxCell id="EdBRat70Bg2DFsznW1Ne-413" value="" style="rounded=0;whiteSpace=wrap;html=1;fillColor=none;dashed=1;dashPattern=8 8;strokeColor=#3399FF;" vertex="1" parent="1">
          <mxGeometry x="1240" y="960" width="130" height="40" as="geometry" />
        </mxCell>
        <mxCell id="EdBRat70Bg2DFsznW1Ne-414" value="" style="rounded=0;whiteSpace=wrap;html=1;fillColor=none;dashed=1;dashPattern=8 8;strokeColor=#3399FF;" vertex="1" parent="1">
          <mxGeometry x="1370" y="960" width="130" height="40" as="geometry" />
        </mxCell>
        <mxCell id="EdBRat70Bg2DFsznW1Ne-415" value="" style="rounded=0;whiteSpace=wrap;html=1;fillColor=none;dashed=1;dashPattern=8 8;strokeColor=#3399FF;" vertex="1" parent="1">
          <mxGeometry x="1500" y="880" width="130" height="40" as="geometry" />
        </mxCell>
        <mxCell id="EdBRat70Bg2DFsznW1Ne-416" value="" style="rounded=0;whiteSpace=wrap;html=1;fillColor=none;dashed=1;dashPattern=8 8;strokeColor=#3399FF;" vertex="1" parent="1">
          <mxGeometry x="1630" y="880" width="130" height="40" as="geometry" />
        </mxCell>
        <mxCell id="EdBRat70Bg2DFsznW1Ne-417" value="" style="rounded=0;whiteSpace=wrap;html=1;fillColor=none;dashed=1;dashPattern=8 8;strokeColor=#3399FF;" vertex="1" parent="1">
          <mxGeometry x="1500" y="920" width="130" height="40" as="geometry" />
        </mxCell>
        <mxCell id="EdBRat70Bg2DFsznW1Ne-418" value="" style="rounded=0;whiteSpace=wrap;html=1;fillColor=none;dashed=1;dashPattern=8 8;strokeColor=#3399FF;" vertex="1" parent="1">
          <mxGeometry x="1630" y="920" width="130" height="40" as="geometry" />
        </mxCell>
        <mxCell id="EdBRat70Bg2DFsznW1Ne-419" value="" style="rounded=0;whiteSpace=wrap;html=1;fillColor=none;dashed=1;dashPattern=8 8;strokeColor=#3399FF;" vertex="1" parent="1">
          <mxGeometry x="1500" y="960" width="130" height="40" as="geometry" />
        </mxCell>
        <mxCell id="EdBRat70Bg2DFsznW1Ne-420" value="" style="rounded=0;whiteSpace=wrap;html=1;fillColor=none;dashed=1;dashPattern=8 8;strokeColor=#3399FF;" vertex="1" parent="1">
          <mxGeometry x="1630" y="960" width="130" height="40" as="geometry" />
        </mxCell>
        <mxCell id="EdBRat70Bg2DFsznW1Ne-421" value="" style="rounded=0;whiteSpace=wrap;html=1;fillColor=none;dashed=1;dashPattern=8 8;strokeColor=#3399FF;" vertex="1" parent="1">
          <mxGeometry x="1240" y="1000" width="130" height="40" as="geometry" />
        </mxCell>
        <mxCell id="EdBRat70Bg2DFsznW1Ne-422" value="" style="rounded=0;whiteSpace=wrap;html=1;fillColor=none;dashed=1;dashPattern=8 8;strokeColor=#3399FF;" vertex="1" parent="1">
          <mxGeometry x="1370" y="1000" width="130" height="40" as="geometry" />
        </mxCell>
        <mxCell id="EdBRat70Bg2DFsznW1Ne-423" value="" style="rounded=0;whiteSpace=wrap;html=1;fillColor=none;dashed=1;dashPattern=8 8;strokeColor=#3399FF;" vertex="1" parent="1">
          <mxGeometry x="1240" y="1040" width="130" height="40" as="geometry" />
        </mxCell>
        <mxCell id="EdBRat70Bg2DFsznW1Ne-424" value="" style="rounded=0;whiteSpace=wrap;html=1;fillColor=none;dashed=1;dashPattern=8 8;strokeColor=#3399FF;" vertex="1" parent="1">
          <mxGeometry x="1370" y="1040" width="130" height="40" as="geometry" />
        </mxCell>
        <mxCell id="EdBRat70Bg2DFsznW1Ne-425" value="" style="rounded=0;whiteSpace=wrap;html=1;fillColor=none;dashed=1;dashPattern=8 8;strokeColor=#3399FF;" vertex="1" parent="1">
          <mxGeometry x="1240" y="1080" width="130" height="40" as="geometry" />
        </mxCell>
        <mxCell id="EdBRat70Bg2DFsznW1Ne-426" value="" style="rounded=0;whiteSpace=wrap;html=1;fillColor=none;dashed=1;dashPattern=8 8;strokeColor=#3399FF;" vertex="1" parent="1">
          <mxGeometry x="1370" y="1080" width="130" height="40" as="geometry" />
        </mxCell>
        <mxCell id="EdBRat70Bg2DFsznW1Ne-427" value="" style="rounded=0;whiteSpace=wrap;html=1;fillColor=none;dashed=1;dashPattern=8 8;strokeColor=#3399FF;" vertex="1" parent="1">
          <mxGeometry x="1500" y="1000" width="130" height="40" as="geometry" />
        </mxCell>
        <mxCell id="EdBRat70Bg2DFsznW1Ne-428" value="" style="rounded=0;whiteSpace=wrap;html=1;fillColor=none;dashed=1;dashPattern=8 8;strokeColor=#3399FF;" vertex="1" parent="1">
          <mxGeometry x="1630" y="1000" width="130" height="40" as="geometry" />
        </mxCell>
        <mxCell id="EdBRat70Bg2DFsznW1Ne-429" value="" style="rounded=0;whiteSpace=wrap;html=1;fillColor=none;dashed=1;dashPattern=8 8;strokeColor=#3399FF;" vertex="1" parent="1">
          <mxGeometry x="1500" y="1040" width="130" height="40" as="geometry" />
        </mxCell>
        <mxCell id="EdBRat70Bg2DFsznW1Ne-430" value="" style="rounded=0;whiteSpace=wrap;html=1;fillColor=none;dashed=1;dashPattern=8 8;strokeColor=#3399FF;" vertex="1" parent="1">
          <mxGeometry x="1630" y="1040" width="130" height="40" as="geometry" />
        </mxCell>
        <mxCell id="EdBRat70Bg2DFsznW1Ne-431" value="" style="rounded=0;whiteSpace=wrap;html=1;fillColor=none;dashed=1;dashPattern=8 8;strokeColor=#3399FF;" vertex="1" parent="1">
          <mxGeometry x="1500" y="1080" width="130" height="40" as="geometry" />
        </mxCell>
        <mxCell id="EdBRat70Bg2DFsznW1Ne-432" value="" style="rounded=0;whiteSpace=wrap;html=1;fillColor=none;dashed=1;dashPattern=8 8;strokeColor=#3399FF;" vertex="1" parent="1">
          <mxGeometry x="1630" y="1080" width="130" height="40" as="geometry" />
        </mxCell>
        <mxCell id="EdBRat70Bg2DFsznW1Ne-441" value="" style="rounded=0;whiteSpace=wrap;html=1;fillColor=none;strokeColor=#3399FF;strokeWidth=3;" vertex="1" parent="1">
          <mxGeometry x="200" y="400" width="520" height="240" as="geometry" />
        </mxCell>
        <mxCell id="EdBRat70Bg2DFsznW1Ne-442" value="" style="rounded=0;whiteSpace=wrap;html=1;fillColor=none;strokeColor=#3399FF;strokeWidth=3;" vertex="1" parent="1">
          <mxGeometry x="200" y="640" width="520" height="240" as="geometry" />
        </mxCell>
        <mxCell id="EdBRat70Bg2DFsznW1Ne-443" value="" style="rounded=0;whiteSpace=wrap;html=1;fillColor=none;strokeColor=#3399FF;strokeWidth=3;" vertex="1" parent="1">
          <mxGeometry x="200" y="880" width="520" height="240" as="geometry" />
        </mxCell>
        <mxCell id="EdBRat70Bg2DFsznW1Ne-444" value="" style="rounded=0;whiteSpace=wrap;html=1;fillColor=none;strokeColor=#3399FF;strokeWidth=3;" vertex="1" parent="1">
          <mxGeometry x="720" y="400" width="520" height="240" as="geometry" />
        </mxCell>
        <mxCell id="EdBRat70Bg2DFsznW1Ne-445" value="" style="rounded=0;whiteSpace=wrap;html=1;fillColor=none;strokeColor=#3399FF;strokeWidth=3;" vertex="1" parent="1">
          <mxGeometry x="720" y="640" width="520" height="240" as="geometry" />
        </mxCell>
        <mxCell id="EdBRat70Bg2DFsznW1Ne-446" value="" style="rounded=0;whiteSpace=wrap;html=1;fillColor=none;strokeColor=#3399FF;strokeWidth=3;" vertex="1" parent="1">
          <mxGeometry x="720" y="880" width="520" height="240" as="geometry" />
        </mxCell>
        <mxCell id="EdBRat70Bg2DFsznW1Ne-447" value="" style="rounded=0;whiteSpace=wrap;html=1;fillColor=none;strokeColor=#3399FF;strokeWidth=3;" vertex="1" parent="1">
          <mxGeometry x="1240" y="400" width="520" height="240" as="geometry" />
        </mxCell>
        <mxCell id="EdBRat70Bg2DFsznW1Ne-448" value="" style="rounded=0;whiteSpace=wrap;html=1;fillColor=none;strokeColor=#3399FF;strokeWidth=3;" vertex="1" parent="1">
          <mxGeometry x="1240" y="640" width="520" height="240" as="geometry" />
        </mxCell>
        <mxCell id="EdBRat70Bg2DFsznW1Ne-449" value="" style="rounded=0;whiteSpace=wrap;html=1;fillColor=none;strokeColor=#3399FF;strokeWidth=3;" vertex="1" parent="1">
          <mxGeometry x="1240" y="880" width="520" height="240" as="geometry" />
        </mxCell>
        <mxCell id="EdBRat70Bg2DFsznW1Ne-469" value="" style="rounded=1;whiteSpace=wrap;html=1;arcSize=1;fillColor=#f5f5f5;fontColor=#333333;strokeColor=#000000;strokeWidth=2;" vertex="1" parent="1">
          <mxGeometry x="450" y="530" width="410" height="240" as="geometry" />
        </mxCell>
        <mxCell id="EdBRat70Bg2DFsznW1Ne-451" value="" style="rounded=1;whiteSpace=wrap;html=1;arcSize=1;strokeWidth=2;" vertex="1" parent="1">
          <mxGeometry x="460" y="560" width="390" height="200" as="geometry" />
        </mxCell>
        <mxCell id="EdBRat70Bg2DFsznW1Ne-470" value="" style="rounded=1;whiteSpace=wrap;html=1;arcSize=1;strokeWidth=2;" vertex="1" parent="1">
          <mxGeometry x="510" y="542" width="340" height="10" as="geometry" />
        </mxCell>
        <mxCell id="EdBRat70Bg2DFsznW1Ne-471" value="" style="ellipse;whiteSpace=wrap;html=1;aspect=fixed;strokeWidth=2;" vertex="1" parent="1">
          <mxGeometry x="460" y="542" width="10" height="10" as="geometry" />
        </mxCell>
        <mxCell id="EdBRat70Bg2DFsznW1Ne-472" value="" style="ellipse;whiteSpace=wrap;html=1;aspect=fixed;strokeWidth=2;" vertex="1" parent="1">
          <mxGeometry x="476" y="542" width="10" height="10" as="geometry" />
        </mxCell>
        <mxCell id="EdBRat70Bg2DFsznW1Ne-473" value="" style="ellipse;whiteSpace=wrap;html=1;aspect=fixed;strokeWidth=2;" vertex="1" parent="1">
          <mxGeometry x="492" y="542" width="10" height="10" as="geometry" />
        </mxCell>
        <mxCell id="EdBRat70Bg2DFsznW1Ne-491" value="" style="line;strokeWidth=3;direction=south;html=1;strokeColor=#3399FF;" vertex="1" parent="1">
          <mxGeometry x="715" y="560" width="10" height="200" as="geometry" />
        </mxCell>
        <mxCell id="EdBRat70Bg2DFsznW1Ne-492" value="" style="line;strokeWidth=3;html=1;strokeColor=#3399FF;" vertex="1" parent="1">
          <mxGeometry x="460" y="635" width="390" height="10" as="geometry" />
        </mxCell>
        <mxCell id="EdBRat70Bg2DFsznW1Ne-513" value="" style="verticalLabelPosition=bottom;verticalAlign=top;html=1;shape=mxgraph.basic.tick;fillColor=#66CC00;strokeColor=#66CC00;" vertex="1" parent="1">
          <mxGeometry x="302.5" y="495" width="45" height="50" as="geometry" />
        </mxCell>
        <mxCell id="EdBRat70Bg2DFsznW1Ne-514" value="" style="verticalLabelPosition=bottom;verticalAlign=top;html=1;shape=mxgraph.basic.tick;fillColor=#66CC00;strokeColor=#66CC00;" vertex="1" parent="1">
          <mxGeometry x="302.5" y="735" width="45" height="50" as="geometry" />
        </mxCell>
        <mxCell id="EdBRat70Bg2DFsznW1Ne-515" value="" style="verticalLabelPosition=bottom;verticalAlign=top;html=1;shape=mxgraph.basic.tick;fillColor=#66CC00;strokeColor=#66CC00;" vertex="1" parent="1">
          <mxGeometry x="957.5" y="495" width="45" height="50" as="geometry" />
        </mxCell>
        <mxCell id="EdBRat70Bg2DFsznW1Ne-516" value="" style="verticalLabelPosition=bottom;verticalAlign=top;html=1;shape=mxgraph.basic.tick;fillColor=#66CC00;strokeColor=#66CC00;" vertex="1" parent="1">
          <mxGeometry x="957.5" y="735" width="45" height="50" as="geometry" />
        </mxCell>
        <mxCell id="EdBRat70Bg2DFsznW1Ne-517" value="" style="verticalLabelPosition=bottom;verticalAlign=top;html=1;shape=mxgraph.basic.x;fillColor=#FF3333;strokeColor=#FF3333;" vertex="1" parent="1">
          <mxGeometry x="440" y="980" width="40" height="40" as="geometry" />
        </mxCell>
        <mxCell id="EdBRat70Bg2DFsznW1Ne-518" value="" style="verticalLabelPosition=bottom;verticalAlign=top;html=1;shape=mxgraph.basic.x;fillColor=#FF3333;strokeColor=#FF3333;" vertex="1" parent="1">
          <mxGeometry x="960" y="980" width="40" height="40" as="geometry" />
        </mxCell>
        <mxCell id="EdBRat70Bg2DFsznW1Ne-519" value="" style="verticalLabelPosition=bottom;verticalAlign=top;html=1;shape=mxgraph.basic.x;fillColor=#FF3333;strokeColor=#FF3333;" vertex="1" parent="1">
          <mxGeometry x="1480" y="980" width="40" height="40" as="geometry" />
        </mxCell>
        <mxCell id="EdBRat70Bg2DFsznW1Ne-520" value="" style="verticalLabelPosition=bottom;verticalAlign=top;html=1;shape=mxgraph.basic.x;fillColor=#FF3333;strokeColor=#FF3333;" vertex="1" parent="1">
          <mxGeometry x="1480" y="740" width="40" height="40" as="geometry" />
        </mxCell>
        <mxCell id="EdBRat70Bg2DFsznW1Ne-521" value="" style="verticalLabelPosition=bottom;verticalAlign=top;html=1;shape=mxgraph.basic.x;fillColor=#FF3333;strokeColor=#FF3333;" vertex="1" parent="1">
          <mxGeometry x="1480" y="500" width="40" height="40" as="geometry" />
        </mxCell>
        <mxCell id="EdBRat70Bg2DFsznW1Ne-522" value="" style="rounded=0;whiteSpace=wrap;html=1;fillColor=none;dashed=1;dashPattern=8 8;strokeColor=#3399FF;" vertex="1" parent="1">
          <mxGeometry x="460" y="560" width="130" height="40" as="geometry" />
        </mxCell>
        <mxCell id="EdBRat70Bg2DFsznW1Ne-523" value="" style="rounded=0;whiteSpace=wrap;html=1;fillColor=none;dashed=1;dashPattern=8 8;strokeColor=#3399FF;" vertex="1" parent="1">
          <mxGeometry x="590" y="560" width="130" height="40" as="geometry" />
        </mxCell>
        <mxCell id="EdBRat70Bg2DFsznW1Ne-524" value="" style="rounded=0;whiteSpace=wrap;html=1;fillColor=none;dashed=1;dashPattern=8 8;strokeColor=#3399FF;" vertex="1" parent="1">
          <mxGeometry x="460" y="600" width="130" height="40" as="geometry" />
        </mxCell>
        <mxCell id="EdBRat70Bg2DFsznW1Ne-525" value="" style="rounded=0;whiteSpace=wrap;html=1;fillColor=none;dashed=1;dashPattern=8 8;strokeColor=#3399FF;" vertex="1" parent="1">
          <mxGeometry x="590" y="600" width="130" height="40" as="geometry" />
        </mxCell>
        <mxCell id="EdBRat70Bg2DFsznW1Ne-526" value="" style="rounded=0;whiteSpace=wrap;html=1;fillColor=none;dashed=1;dashPattern=8 8;strokeColor=#3399FF;" vertex="1" parent="1">
          <mxGeometry x="720" y="560" width="130" height="40" as="geometry" />
        </mxCell>
        <mxCell id="EdBRat70Bg2DFsznW1Ne-527" value="" style="rounded=0;whiteSpace=wrap;html=1;fillColor=none;dashed=1;dashPattern=8 8;strokeColor=#3399FF;" vertex="1" parent="1">
          <mxGeometry x="720" y="600" width="130" height="40" as="geometry" />
        </mxCell>
        <mxCell id="EdBRat70Bg2DFsznW1Ne-528" value="" style="rounded=0;whiteSpace=wrap;html=1;fillColor=none;dashed=1;dashPattern=8 8;strokeColor=#3399FF;" vertex="1" parent="1">
          <mxGeometry x="720" y="640" width="130" height="40" as="geometry" />
        </mxCell>
        <mxCell id="EdBRat70Bg2DFsznW1Ne-529" value="" style="rounded=0;whiteSpace=wrap;html=1;fillColor=none;dashed=1;dashPattern=8 8;strokeColor=#3399FF;" vertex="1" parent="1">
          <mxGeometry x="720" y="680" width="130" height="40" as="geometry" />
        </mxCell>
        <mxCell id="EdBRat70Bg2DFsznW1Ne-530" value="" style="rounded=0;whiteSpace=wrap;html=1;fillColor=none;dashed=1;dashPattern=8 8;strokeColor=#3399FF;" vertex="1" parent="1">
          <mxGeometry x="460" y="640" width="130" height="40" as="geometry" />
        </mxCell>
        <mxCell id="EdBRat70Bg2DFsznW1Ne-531" value="" style="rounded=0;whiteSpace=wrap;html=1;fillColor=none;dashed=1;dashPattern=8 8;strokeColor=#3399FF;" vertex="1" parent="1">
          <mxGeometry x="720" y="720" width="130" height="40" as="geometry" />
        </mxCell>
        <mxCell id="EdBRat70Bg2DFsznW1Ne-532" value="" style="rounded=0;whiteSpace=wrap;html=1;fillColor=none;dashed=1;dashPattern=8 8;strokeColor=#3399FF;" vertex="1" parent="1">
          <mxGeometry x="590" y="640" width="130" height="40" as="geometry" />
        </mxCell>
        <mxCell id="EdBRat70Bg2DFsznW1Ne-533" value="" style="rounded=0;whiteSpace=wrap;html=1;fillColor=none;dashed=1;dashPattern=8 8;strokeColor=#3399FF;" vertex="1" parent="1">
          <mxGeometry x="460" y="680" width="130" height="40" as="geometry" />
        </mxCell>
        <mxCell id="EdBRat70Bg2DFsznW1Ne-534" value="" style="rounded=0;whiteSpace=wrap;html=1;fillColor=none;dashed=1;dashPattern=8 8;strokeColor=#3399FF;" vertex="1" parent="1">
          <mxGeometry x="590" y="680" width="130" height="40" as="geometry" />
        </mxCell>
        <mxCell id="EdBRat70Bg2DFsznW1Ne-535" value="" style="rounded=0;whiteSpace=wrap;html=1;fillColor=none;dashed=1;dashPattern=8 8;strokeColor=#3399FF;" vertex="1" parent="1">
          <mxGeometry x="460" y="720" width="130" height="40" as="geometry" />
        </mxCell>
        <mxCell id="EdBRat70Bg2DFsznW1Ne-536" value="" style="rounded=0;whiteSpace=wrap;html=1;fillColor=none;dashed=1;dashPattern=8 8;strokeColor=#3399FF;" vertex="1" parent="1">
          <mxGeometry x="590" y="720" width="130" height="40" as="geometry" />
        </mxCell>
      </root>
    </mxGraphModel>
  </diagram>
</mxfile>
